<?xml version="1.0" standalone="no"?>
<!DOCTYPE svg PUBLIC "-//W3C//DTD SVG 20010904//EN"
 "http://www.w3.org/TR/2001/REC-SVG-20010904/DTD/svg10.dtd">
<svg version="1.0" xmlns="http://www.w3.org/2000/svg"
 width="700.000000pt" height="700.000000pt" viewBox="0 0 700.000000 700.000000"
 preserveAspectRatio="xMidYMid meet">
<metadata>
Created by potrace 1.14, written by Peter Selinger 2001-2017
</metadata>
<g transform="translate(0.000000,700.000000) scale(0.100000,-0.100000)"
fill="#000000" stroke="none">
<path d="M1364 5232 c-77 -27 -129 -73 -165 -147 -28 -58 -31 -71 -27 -137 2
-42 12 -90 22 -113 13 -27 226 -247 665 -687 l646 -648 -651 -652 c-721 -723
-684 -679 -684 -813 0 -207 226 -346 415 -255 67 32 1560 1526 1594 1594 42
84 36 194 -15 277 -12 19 -363 376 -780 793 -596 596 -768 763 -804 778 -64
29 -153 33 -216 10z"/>
<path d="M3395 1730 c-60 -23 -126 -84 -156 -143 -31 -59 -36 -151 -13 -223
24 -76 97 -151 174 -178 53 -19 91 -20 1120 -20 1219 1 1132 -6 1226 88 57 58
85 124 85 203 0 117 -58 208 -171 269 -34 18 -76 19 -1125 21 -1058 2 -1091 1
-1140 -17z"/>
</g>
</svg>
